<?xml version="1.0" encoding="utf-8"?>
<!DOCTYPE svg PUBLIC "-//W3C//DTD SVG 1.0//EN" "http://www.w3.org/TR/2001/REC-SVG-20010904/DTD/svg10.dtd">
<svg version="1.0" xmlns="http://www.w3.org/2000/svg" width="1024px" height="1024px" viewBox="0 0 1024 1024" preserveAspectRatio="xMidYMid meet">
 <g fill="#ffffff">
  <path d="M493 852.4 c-1.9 -0.2 -7.3 -0.9 -12 -1.5 -22.3 -2.7 -47.2 -10.1 -68.8 -20.4 -50.9 -24.4 -88.8 -66.9 -106.1 -119 -13.4 -40.3 -13.2 -84.7 0.5 -126.5 8 -24.3 19.7 -45.3 45.8 -82 18.6 -26.2 24.9 -41.7 33.2 -82.4 5.9 -29 8.9 -39.2 15.3 -52.7 14.2 -29.9 38.7 -51.9 68 -60.9 7.5 -2.4 23.4 -5 30.3 -5 l4.6 0 0.6 -4.8 c0.3 -2.6 0.8 -7.6 1.2 -11.2 1.8 -18.6 8.4 -40.8 17.4 -58.5 11.9 -23.6 32.9 -47.5 41.6 -47.5 7.1 0 12.4 5.1 12.4 12 0 2.6 -1.7 4.9 -10.3 13.9 -5.7 5.9 -12.6 14 -15.4 18.2 -13.5 19.9 -22 44.6 -23.9 69 l-0.7 8.4 12.2 1.8 c6.7 0.9 15.8 2.9 20.4 4.3 35.5 11.2 61.4 39.6 73.3 80.2 1.4 4.8 4.7 20 7.5 33.7 7.1 36.1 11.3 47.1 24.9 65.4 6.1 8.2 7 9.9 7 13.6 0 3.7 -0.6 4.9 -5.2 9.9 -6.8 7.3 -12.1 16.1 -14.9 24.5 -2.8 8.2 -3.1 21 -0.7 29.1 2.2 7.1 8.2 16.9 13.9 22.8 8.2 8.5 8.5 10 3 20.7 -5 9.7 -6.8 19.2 -5.3 28.2 3.8 22.6 23.2 39.3 48 41 15.5 1.1 18.3 5.6 13.8 21.9 -10.4 37.5 -29 69.3 -55.2 94.3 -32.5 31.1 -73.3 50.8 -119.4 57.6 -10 1.5 -49.4 2.8 -57 1.9z m37.5 -22.4 c19.8 -1.6 34.9 -4.6 53 -10.5 10.2 -3.4 32.3 -14 41.7 -20.1 34.5 -22.2 58.9 -52.7 72.8 -91 3.9 -10.8 3.9 -11.4 -1.2 -11.4 -1.1 0 -5.4 -1.2 -9.6 -2.6 -22.3 -7.4 -40.5 -27.3 -45.8 -49.9 -2.4 -10.6 -1.5 -27.7 2 -37.3 l2.7 -7.2 -4.6 -6.4 c-16.2 -22.7 -18.9 -49.9 -7.4 -74.5 2.2 -4.7 5.7 -10.9 7.9 -13.8 l4 -5.2 -5.4 -8.3 c-11.5 -17.7 -16.2 -30.9 -21.6 -60.8 -5.7 -31 -8.3 -40.3 -15.5 -55.5 -12.1 -25.4 -33.1 -42.6 -59.7 -48.7 -12.9 -3 -46.8 -3.3 -59.8 -0.5 -41.1 8.9 -65.1 38.6 -75.5 93.7 -8.4 44.8 -15.8 64 -35.6 92.6 -33.4 48.4 -41.6 63.9 -49 92.7 -6.8 26.6 -6.5 62.7 0.6 89.6 10.5 39.5 35.9 75.1 71.1 99.7 37.8 26.4 86.9 39.3 134.9 35.4z"/>
  <path d="M437 290.3 c-9.4 -1 -26 -4.7 -35.2 -7.9 -20.8 -7.2 -36.6 -16.5 -51.1 -30.3 -16.2 -15.4 -28.2 -34.6 -37.7 -59.8 -4.7 -12.6 -4.7 -15.3 -0.2 -19.6 7.5 -7.1 54.3 -11.8 81.2 -8.3 52.2 6.9 89 42.4 103.5 99.6 5.2 20.4 3.6 22.8 -16.9 25.5 -10.5 1.3 -34.2 1.8 -43.6 0.8z m38 -22.8 c0 -1.8 -5.9 -18.5 -8.6 -24 -8 -17.1 -23.8 -35.7 -36.7 -43.3 -17.4 -10.4 -32.5 -14.2 -56.7 -14.2 -13.9 0 -33.7 1.4 -34.8 2.5 -0.2 0.2 1 3.8 2.7 8 17 42.4 54.5 68.3 103.6 71.4 9.9 0.6 30.5 0.3 30.5 -0.4z"/>
 </g>
</svg>